{"title":"DOMENICA SFYRIGMA TOY ANEMOY video clip 2011","uid":6253316,"size":81976072,"categoryP":"video","categoryS":"music_videos","magnet":"?xt=urn:btih:917ad3d5b6401a19d7870828c39b98d3e046c118&amp;dn=DOMENICA+SFYRIGMA+TOY+ANEMOY+video+clip+2011&amp;tr=udp%3A%2F%2Ftracker.openbittorrent.com%3A80&amp;tr=udp%3A%2F%2Fopen.demonii.com%3A1337&amp;tr=udp%3A%2F%2Ftracker.coppersurfer.tk%3A6969&amp;tr=udp%3A%2F%2Fexodus.desync.com%3A6969","seeders":0,"leechers":1,"uploader":"TRIP1111","files":4,"time":1300480187,"description":"DOMENICA SFYRIGMA TOY ANEMOY video clip 2011\n\n\n\n\n\nFormat                           : AVI\nFormat/Info                      : Audio Video Interleave\nFile size                        : 78.0 MiB\nDuration                         : 3mn 12s\nOverall bit rate                 : 3 407 Kbps\nWriting application              : Lavf52.0.0\n\nVideo\nID                               : 0\nFormat                           : MPEG-4 Visual\nFormat profile                   : AdvancedSimple@L1\nFormat settings, BVOP            : Yes\nFormat settings, QPel            : No\nFormat settings, GMC             : No warppoints\nFormat settings, Matrix          : Default (H.263)\nCodec ID                         : DX50\nCodec ID/Hint                    : DivX 5\nDuration                         : 3mn 12s\nBit rate                         : 3 267 Kbps\nWidth                            : 720 pixels\nHeight                           : 576 pixels\nDisplay aspect ratio             : 16:9\nFrame rate                       : 25.000 fps\nStandard                         : PAL\nResolution                       : 24 bits\nColorimetry                      : 4:2:0\nScan type                        : Progressive\nBits/(Pixel*Frame)               : 0.315\nStream size                      : 74.8 MiB (96%)\nWriting library                  : Lavc51.48.0\n\nAudio\nID                               : 1\nFormat                           : MPEG Audio\nFormat version                   : Version 1\nFormat profile                   : Layer 3\nFormat_Settings_Mode             : Joint stereo / MS Stereo\nCodec ID                         : 55\nCodec ID/Hint                    : MP3\nDuration                         : 3mn 12s\nBit rate mode                    : Constant\nBit rate                         : 128 Kbps\nChannel(s)                       : 2 channels\nSampling rate                    : 44.1 KHz\nResolution                       : 16 bits\nStream size                      : 2.93 MiB (4%)\nAlignment                        : Aligned on interleaves\nInterleave, duration             : 26 ms (0.65 video frame)\nWriting library                  : LAME3.96.1\n\n\n\n","torrent":{"xt":"urn:btih:917ad3d5b6401a19d7870828c39b98d3e046c118","amp;dn":"DOMENICA+SFYRIGMA+TOY+ANEMOY+video+clip+2011","amp;tr":["udp%3A%2F%2Ftracker.openbittorrent.com%3A80","udp%3A%2F%2Fopen.demonii.com%3A1337","udp%3A%2F%2Ftracker.coppersurfer.tk%3A6969","udp%3A%2F%2Fexodus.desync.com%3A6969"],"infoHash":"917ad3d5b6401a19d7870828c39b98d3e046c118","infoHashBuffer":{"type":"Buffer","data":[145,122,211,213,182,64,26,25,215,135,8,40,195,155,152,211,224,70,193,24]},"announce":[],"urlList":[]}}